# This file uses centimeters as units for non-parametric coordinates.

mtllib crate.mtl
g default
v -0.500000 -0.500000 0.500000
v 0.500000 -0.500000 0.500000
v -0.500000 0.500000 0.500000
v 0.500000 0.500000 0.500000
v -0.500000 0.500000 -0.500000
v 0.500000 0.500000 -0.500000
v -0.500000 -0.500000 -0.500000
v 0.500000 -0.500000 -0.500000
vt 0.500911 0.497992
vt 0.999848 0.497992
vt 0.999848 0.996929
vt 0.500911 0.996929
vt 0.501146 0.498190
vt 1.001020 0.498190
vt 1.001020 0.998064
vt 0.501146 0.998064
vt -0.003679 -0.006189
vt 0.498879 -0.006189
vt 0.498879 0.496381
vt -0.003679 0.496381
vt -0.002215 -0.004189
vt 0.499456 -0.004189
vt 0.499456 0.497481
vt -0.002215 0.497481
vt 0.000273 0.497139
vt 0.500147 0.497139
vt 0.500147 0.997013
vt 0.000273 0.997013
vt 0.500003 0.001840
vt 0.997944 0.001840
vt 0.997944 0.499781
vt 0.500003 0.499781
vn 0.000000 0.000000 1.000000
vn 0.000000 0.000000 1.000000
vn 0.000000 0.000000 1.000000
vn 0.000000 0.000000 1.000000
vn 0.000000 1.000000 0.000000
vn 0.000000 1.000000 0.000000
vn 0.000000 1.000000 0.000000
vn 0.000000 1.000000 0.000000
vn 0.000000 0.000000 -1.000000
vn 0.000000 0.000000 -1.000000
vn 0.000000 0.000000 -1.000000
vn 0.000000 0.000000 -1.000000
vn 0.000000 -1.000000 0.000000
vn 0.000000 -1.000000 0.000000
vn 0.000000 -1.000000 0.000000
vn 0.000000 -1.000000 0.000000
vn 1.000000 0.000000 0.000000
vn 1.000000 0.000000 0.000000
vn 1.000000 0.000000 0.000000
vn 1.000000 0.000000 0.000000
vn -1.000000 0.000000 0.000000
vn -1.000000 0.000000 0.000000
vn -1.000000 0.000000 0.000000
vn -1.000000 0.000000 0.000000
s off
g pCube1
usemtl lambert2SG
f 1/1/1 2/2/2 4/3/3 3/4/4
f 3/5/5 4/6/6 6/7/7 5/8/8
f 5/9/9 6/10/10 8/11/11 7/12/12
f 7/13/13 8/14/14 2/15/15 1/16/16
f 2/17/17 8/18/18 6/19/19 4/20/20
f 7/21/21 1/22/22 3/23/23 5/24/24
